<svg width="489" height="199" viewBox="0 0 489 199" fill="none" xmlns="http://www.w3.org/2000/svg">
<path d="M435.855 59.1621C458.318 59.234 476.484 77.495 476.438 99.9425C476.392 122.39 458.15 140.535 435.687 140.463C413.225 140.391 395.058 122.13 395.104 99.6823C395.151 77.2348 413.392 59.0902 435.855 59.1621Z" stroke="#993537" stroke-width="20"/>
<ellipse cx="13.8238" cy="13.78" rx="13.8238" ry="13.78" transform="matrix(0.999995 0.00319945 -0.00206068 0.999998 421.787 86.1108)" fill="#993537"/>
<ellipse cx="3.01611" cy="3.13183" rx="3.01611" ry="3.13183" transform="matrix(0.999995 0.00319945 -0.00206068 0.999998 432.87 74.8718)" fill="#993537"/>
<ellipse cx="3.01611" cy="3.13183" rx="3.01611" ry="3.13183" transform="matrix(0.999995 0.00319945 -0.00206068 0.999998 453.447 90.5967)" fill="#993537"/>
<ellipse cx="3.01611" cy="3.13183" rx="3.01611" ry="3.13183" transform="matrix(0.999995 0.00319945 -0.00206068 0.999998 445.858 114.375)" fill="#993537"/>
<ellipse cx="3.26745" cy="3.13183" rx="3.26745" ry="3.13183" transform="matrix(0.999995 0.00319945 -0.00206068 0.999998 419.216 114.289)" fill="#993537"/>
<ellipse cx="3.01611" cy="3.13183" rx="3.01611" ry="3.13183" transform="matrix(0.999995 0.00319945 -0.00206068 0.999998 411.669 89.7152)" fill="#993537"/>
<line x1="135" y1="73" x2="57" y2="73" stroke="#993537" stroke-width="10" stroke-linecap="round"/>
<line x1="127" y1="100" x2="8" y2="100" stroke="#993537" stroke-width="10" stroke-linecap="round"/>
<line x1="115" y1="128" x2="37" y2="128" stroke="#993537" stroke-width="10" stroke-linecap="round"/>
<path d="M145.685 144.108L166.359 59.5589H221.911L218.262 74.4794H180.374L174.294 99.3468H205.27L201.622 114.267H170.646L163.349 144.108H145.685ZM269.188 142.74C259.676 144.647 251.294 145.6 244.04 145.6C236.787 145.6 231.197 144.73 227.271 142.989C223.344 141.248 220.61 138.472 219.068 134.659C217.525 130.846 216.913 126.369 217.231 121.23C217.549 116.091 218.661 109.625 220.566 101.834C224.559 85.5039 229.682 74.1478 235.936 67.7652C242.296 61.2997 251.833 58.0669 264.547 58.0669C271.886 58.0669 280.103 59.1859 289.199 61.424L285.342 75.1011C277.198 73.8577 270.31 73.236 264.678 73.236C259.132 73.236 254.981 73.982 252.227 75.4741C249.493 76.8832 247.032 79.6187 244.845 83.6803C242.742 87.742 240.495 94.6634 238.103 104.445C235.712 114.226 235.202 121.023 236.573 124.836C238.051 128.566 242.288 130.431 249.285 130.431C256.368 130.431 264.019 129.851 272.239 128.69L269.188 142.74ZM307.781 115.759L300.849 144.108H283.185L303.859 59.5589H337.651C358.131 59.5589 366.101 68.8428 361.561 87.4104C358.865 98.435 352.612 106.558 342.802 111.781L347.313 144.108H327.985L324.805 115.759H307.781ZM327.752 101.088C331.934 101.088 335.352 99.8442 338.008 97.3574C340.664 94.8707 342.489 91.5965 343.482 87.5348C344.475 83.4731 344.156 80.2403 342.525 77.8365C340.98 75.4326 338.159 74.2307 334.063 74.2307H317.935L311.368 101.088H327.752Z" fill="#993537"/>
</svg>
