<svg width="105" height="11" viewBox="0 0 105 11" fill="none" xmlns="http://www.w3.org/2000/svg">
<path d="M8.03979 4.17703e-05C7.76655 -0.000201824 7.40836 0.180147 7.24371 0.400555L0.0826846 9.98993C-0.0818689 10.2103 0.00695398 10.3906 0.280184 10.3906H8.59686C8.86999 10.3906 9.22838 10.2103 9.39309 9.98993L16.5605 0.40401C16.7253 0.183601 16.6365 0.00325264 16.3633 0.00307548L8.03979 4.17703e-05Z" fill="#585B61"/>
<path d="M22.9444 0.400758C23.1089 0.180349 23.02 0 22.7468 0H18.8389C18.5656 0 18.2073 0.180349 18.0427 0.400758L10.8785 9.99013C10.7139 10.2105 10.8026 10.3908 11.0759 10.3908H14.9873C15.2605 10.3908 15.6187 10.2105 15.7833 9.99013L22.9444 0.400758Z" fill="#585B61"/>
<path d="M25.2943 0C25.0211 0 24.6627 0.180349 24.4982 0.400758L17.3339 9.99013C17.1694 10.2105 17.2581 10.3908 17.5313 10.3908H20.5118C20.7849 10.3908 21.1433 10.2105 21.308 9.99013L28.4722 0.400758C28.6367 0.180349 28.548 0 28.2748 0H25.2943Z" fill="#585B61"/>
<path d="M23.2964 9.99334C23.1319 10.2139 23.2206 10.3941 23.494 10.3937L25.5469 10.3915C25.82 10.3911 26.1782 10.2105 26.3429 9.99013L33.5036 0.404213C33.6684 0.183805 33.5797 0.00327891 33.3065 0.00283601L31.2534 0.000687604C30.9803 0.000244705 30.6221 0.18035 30.4576 0.400936L23.2964 9.99334Z" fill="#585B61"/>
<path d="M28.637 9.99074C28.472 10.2107 28.5603 10.3908 28.8337 10.3908H30.3251C30.5982 10.3908 30.9568 10.2107 31.1218 9.99057L38.2814 0.438382C38.4463 0.218239 38.3578 0.0380454 38.0847 0.0380454H36.6001C36.3269 0.0380454 35.9681 0.218239 35.8031 0.438138L28.637 9.99074Z" fill="#585B61"/>
<path d="M41.8438 5.28702C41.5706 5.28702 41.4817 5.10665 41.646 4.88606L42.9717 3.10685C43.1363 2.88626 43.4942 2.70583 43.7674 2.70583H52.9912C53.2644 2.70583 53.4883 2.93186 53.4887 3.20799L53.4909 4.78147C53.4913 5.05769 53.2679 5.28372 52.9947 5.28372L41.8438 5.28702ZM41.3132 0.0381342C41.04 0.0380457 40.6817 0.218239 40.5167 0.438382L33.3569 9.99403C33.1919 10.2142 33.2804 10.3941 33.5536 10.3938L37.0305 10.3913C37.3037 10.3911 37.6621 10.2107 37.8271 9.99057L38.9695 8.46594C39.1344 8.24579 39.493 8.06559 39.7662 8.06542L52.9912 8.0624C53.2644 8.06214 53.488 8.28817 53.488 8.56429V9.88867C53.488 10.1649 53.7115 10.3911 53.9849 10.3913L56.7153 10.3938C56.9884 10.3941 57.2121 10.1683 57.2121 9.89213V0.543659C57.2121 0.267556 56.9884 0.0415221 56.7153 0.0414336L41.3132 0.0381342Z" fill="#585B61"/>
<path d="M59.0535 9.88867C59.0535 10.1649 59.2772 10.3908 59.5504 10.3908H62.281C62.5542 10.3908 62.7778 10.1649 62.7778 9.88867L62.7809 4.60934C62.7809 4.33322 62.9737 4.22207 63.2089 4.36238L68.3775 7.44363C68.6128 7.58403 69.0288 7.69856 69.3019 7.69821L71.2864 7.69606C71.5596 7.69562 71.9758 7.58075 72.2113 7.44062L77.3792 4.36539C77.6147 4.22526 77.8073 4.33669 77.8073 4.6128L77.8042 9.88867C77.8042 10.1649 78.0274 10.3908 78.3008 10.3908H81.0347C81.3079 10.3908 81.5315 10.1649 81.5315 9.88867V0.543659C81.5315 0.267556 81.3079 0.0413449 81.0347 0.0410791L78.3041 0.0384881C78.0309 0.0383109 77.6195 0.160706 77.3902 0.310539L70.7149 4.67206C70.4855 4.82198 70.1098 4.82198 69.8803 4.67206L63.1984 0.310539C62.9688 0.160706 62.5574 0.0383109 62.2843 0.0384881L59.5504 0.0410791C59.2772 0.0413449 59.0535 0.267556 59.0535 0.543659V9.88867Z" fill="#585B61"/>
<path d="M83.3936 9.88867C83.3936 10.1649 83.617 10.3908 83.8902 10.3908H104.07C104.344 10.3908 104.567 10.1649 104.567 9.88867V4.71661C104.567 4.44049 104.344 4.21445 104.07 4.21427L94.1349 4.21124C93.8617 4.211 93.6385 4.43703 93.6389 4.71316L93.6406 5.71573C93.6411 5.99194 93.865 6.21815 94.1381 6.21831L100.346 6.22437C100.62 6.22462 100.843 6.45083 100.843 6.72695V7.25896C100.843 7.53516 100.62 7.7611 100.346 7.76092L87.6177 7.75791C87.3446 7.75765 87.1209 7.5317 87.1209 7.25549V3.17685C87.1209 2.90072 87.3446 2.67469 87.6177 2.67469L104.07 2.67124C104.344 2.67124 104.567 2.44527 104.567 2.16908V0.540204C104.567 0.264079 104.344 0.0380454 104.07 0.0380454L83.8902 0.0415218C83.617 0.0415218 83.3936 0.267556 83.3936 0.543659V9.88867Z" fill="#585B61"/>
</svg>
