<svg width="91" height="32" viewBox="0 0 91 32" fill="none" xmlns="http://www.w3.org/2000/svg">
<path d="M64.8736 2.10986C61.7244 2.10986 58.8001 3.14042 56.4157 4.8879C54.0313 3.14042 51.1071 2.10986 47.9579 2.10986C44.8087 2.10986 41.8844 3.14042 39.5 4.8879C37.1156 3.14042 34.2363 2.10986 31.0421 2.10986C27.8929 2.10986 24.9687 3.14042 22.5843 4.8879C20.2449 3.14042 17.3206 2.10986 14.1264 2.10986C6.34339 2.10986 0 8.33802 0 16C0 23.662 6.34339 29.8901 14.1264 29.8901C17.2756 29.8901 20.1999 28.8595 22.5843 27.1121C24.9687 28.8595 27.8929 29.8901 31.0421 29.8901C34.1913 29.8901 37.1156 28.8595 39.5 27.1121C41.8394 28.8595 44.7637 29.8901 47.9579 29.8901C51.1071 29.8901 54.0313 28.8595 56.4157 27.1121C58.7551 28.8595 61.6794 29.8901 64.8736 29.8901C72.6566 29.8901 79 23.662 79 16C79 8.33802 72.6566 2.10986 64.8736 2.10986ZM56.4157 23.1691C54.7061 21.2424 53.6714 18.7332 53.6714 16C53.6714 13.2668 54.7061 10.7576 56.4157 8.83089C58.1253 10.7576 59.16 13.2668 59.16 16C59.16 18.7332 58.1253 21.2424 56.4157 23.1691ZM39.5 23.1691C37.7904 21.2424 36.7557 18.7332 36.7557 16C36.7557 13.2668 37.7904 10.7576 39.5 8.83089C41.2096 10.7576 42.2443 13.2668 42.2443 16C42.2443 18.7332 41.2096 21.2424 39.5 23.1691ZM22.5843 23.1691C20.8747 21.2424 19.84 18.7332 19.84 16C19.84 13.2668 20.8747 10.7576 22.5843 8.83089C24.2939 10.7576 25.3286 13.2668 25.3286 16C25.3736 18.7332 24.2939 21.2424 22.5843 23.1691ZM2.92426 16C2.92426 9.95106 7.96298 5.0223 14.1264 5.0223C16.4208 5.0223 18.5803 5.69442 20.3798 6.90419C18.2204 9.32376 16.9157 12.505 16.9157 16C16.9157 19.4949 18.2204 22.6762 20.3798 25.0958C18.5803 26.2607 16.4658 26.9776 14.1264 26.9776C7.96298 26.9776 2.92426 22.0489 2.92426 16ZM24.7887 25.0958C26.9482 22.6762 28.2528 19.4949 28.2528 16C28.2528 12.505 26.9482 9.32376 24.7887 6.90419C26.5883 5.73921 28.7027 5.0223 31.0421 5.0223C33.3815 5.0223 35.496 5.69442 37.2955 6.90419C35.1361 9.32376 33.7864 12.505 33.7864 16C33.7864 19.4949 35.0911 22.6762 37.2955 25.0958C35.496 26.2607 33.3815 26.9776 31.0421 26.9776C28.7477 26.9776 26.5883 26.2607 24.7887 25.0958ZM41.7044 25.0958C43.8639 22.6762 45.2135 19.4949 45.2135 16C45.2135 12.505 43.9089 9.32376 41.7044 6.90419C43.504 5.73921 45.6185 5.0223 47.9579 5.0223C50.2973 5.0223 52.4117 5.69442 54.2113 6.90419C52.0518 9.32376 50.7022 12.505 50.7022 16C50.7022 19.4949 52.0068 22.6762 54.2113 25.0958C52.4117 26.2607 50.2973 26.9776 47.9579 26.9776C45.6185 26.9776 43.504 26.2607 41.7044 25.0958ZM64.8736 26.9776C62.5792 26.9776 60.4197 26.3056 58.6201 25.0958C60.7796 22.6762 62.1293 19.4949 62.1293 16C62.1293 12.505 60.8246 9.32376 58.6201 6.90419C60.4197 5.73921 62.5342 5.0223 64.8736 5.0223C71.037 5.0223 76.0757 9.95106 76.0757 16C76.0757 22.0489 71.037 26.9776 64.8736 26.9776Z" fill="#585B61"/>
</svg>
