<svg width="42" height="42" viewBox="0 0 42 42" fill="none" xmlns="http://www.w3.org/2000/svg">
<g clip-path="url(#clip0_70_8185)">
<path d="M33.4445 21C33.4445 27.8774 27.8775 33.4444 21.0001 33.4444V21H33.4445ZM21.0001 8.55554V21H8.55566C8.55566 14.1226 14.1227 8.55554 21.0001 8.55554Z" fill="#585B61"/>
<path d="M21 8.55556V9.23786C27.485 9.23786 32.7621 14.5137 32.7621 21H33.4444C33.4444 14.1275 27.8725 8.55556 21 8.55556ZM21 32.7621C14.515 32.7621 9.23787 27.4863 9.23787 21H8.55556C8.55556 27.8725 14.1275 33.4444 21 33.4444M21 0C9.40234 0 0 9.40234 0 21C0 32.5977 9.40234 42 21 42C32.5977 42 42 32.5977 42 21C42 9.40234 32.5977 0 21 0ZM40.6344 21C40.6344 31.8432 31.8445 40.6344 21 40.6344C10.1555 40.6344 1.36559 31.8432 1.36559 21C1.36559 10.1567 10.1568 1.36559 21 1.36559C31.8432 1.36559 40.6344 10.1567 40.6344 21Z" fill="#585B61"/>
<path d="M12.0258 10.8692C12.6969 10.1673 13.0768 9.35627 12.4057 8.58202C12.0406 8.16183 11.4275 8.06995 10.9193 8.27698L10.8687 8.29658L10.8847 8.25248C10.96 8.05279 11.0081 7.41576 10.4616 6.97596C10.1952 6.76157 9.86088 6.68194 9.52288 6.71624C8.89253 6.77995 8.40773 7.20749 7.08781 8.669C6.68937 9.11003 6.10959 9.80587 5.76172 10.2567L9.38719 13.6722C10.5887 12.3516 11.0784 11.8603 12.0258 10.8692ZM7.29505 10.0337C8.02532 9.14678 8.80124 8.34191 9.15281 8.02339C9.26383 7.92294 9.38472 7.82248 9.53152 7.78328C9.7696 7.71835 10.0151 7.88618 10.0706 8.12875C10.1261 8.37254 9.9719 8.60408 9.80043 8.79519C9.41433 9.22764 7.99819 10.6989 7.99819 10.6989L7.29505 10.0337ZM8.71489 11.3715C8.71489 11.3715 10.094 9.92348 10.5443 9.4604C10.7231 9.27664 10.8379 9.16516 10.9612 9.10513C11.1204 9.02795 11.2943 9.01203 11.4497 9.11493C11.6027 9.21661 11.673 9.3918 11.6348 9.56576C11.5891 9.77279 11.4189 9.97003 11.2783 10.1207C11.0883 10.3229 9.45257 12.0612 9.4501 12.0637L8.71489 11.3715ZM21.4145 6.79587L22.5753 4.21342L22.6493 3.98433L22.6284 4.22322L22.7505 7.67425C23.1576 7.71222 23.5782 7.76858 23.9927 7.83718L23.8039 2.72618C23.2242 2.66248 22.6469 2.61715 22.0695 2.59265L20.926 5.41154L20.8853 5.62103L20.8446 5.41154L19.7023 2.59265C19.125 2.61715 18.5477 2.66248 17.9679 2.72618L17.7792 7.83718C18.1937 7.76858 18.6143 7.71345 19.0214 7.67425L19.1435 4.22322L19.1225 3.98433L19.1966 4.21342L20.3574 6.79587H21.4145ZM31.0549 12.1384C31.3398 12.4422 31.7506 12.9323 31.9813 13.2299L36.2297 10.5519C36.0175 10.2763 35.6795 9.85732 35.4267 9.56208L32.7362 11.3286L32.5524 11.4854L32.6894 11.287L33.8773 8.9324L33.0372 8.09812L30.6651 9.27787L30.4652 9.41385L30.6244 9.23131L32.4044 6.56066C32.0911 6.29604 31.7901 6.05348 31.4065 5.75946L28.7099 9.97493C29.0516 10.2359 29.5018 10.6193 29.7892 10.8803L32.3279 9.57188L32.4908 9.45305L32.3711 9.61476L31.0549 12.1384Z" fill="#585B61"/>
</g>
<defs>
<clipPath id="clip0_70_8185">
<rect width="42" height="42" fill="white"/>
</clipPath>
</defs>
</svg>
