<svg width="42" height="42" viewBox="0 0 42 42" fill="none" xmlns="http://www.w3.org/2000/svg">
<g clip-path="url(#clip0_69_8123)">
<path d="M22.9127 31.0235C23.1564 30.8373 23.7009 30.651 24.0018 30.522C23.9875 30.0635 23.8012 29.6336 23.9158 29.2467C24.1164 28.5588 24.5893 28.2579 25.0479 28.2006C25.0765 28.2149 25.1052 28.2723 25.0765 28.2866C24.8186 28.5302 24.7183 28.8741 24.6753 29.2467C24.661 29.39 24.6323 29.8342 24.7613 30.1494C25.0335 30.0061 25.6927 29.7769 25.9076 29.7339C25.9363 29.2753 26.0079 28.8311 26.1369 28.5015C26.3948 27.8567 26.968 27.3408 27.5412 27.6418C27.5699 27.6561 27.5985 27.7134 27.5699 27.7277C27.2116 27.8567 26.9824 28.2293 26.7817 28.6592C26.7244 28.7881 26.5238 29.4759 26.7531 29.6192C26.7531 29.6192 26.7674 29.6192 26.7674 29.6336C27.183 29.5476 27.2546 29.5906 27.6988 29.5476C27.7705 29.1034 27.9711 28.7165 28.143 28.4299C28.401 27.9283 29.0745 27.5271 29.6763 27.8854C29.705 27.8997 29.7336 27.9713 29.6906 27.9713C29.2751 28.0573 29.0028 28.3296 28.8595 28.5732C28.7879 28.6878 28.401 29.218 28.6016 29.433C28.6159 29.433 28.6446 29.433 28.6732 29.433C29.0315 29.4186 29.2894 29.4903 29.662 29.5619C29.7766 29.2897 29.8769 29.261 29.9916 29.1177C30.4071 28.6162 31.1093 28.4442 31.3529 28.9171C31.3815 28.9457 31.3815 29.0031 31.3529 29.0031C31.1379 29.0317 30.7797 29.1464 30.6077 29.3613C30.5647 29.4043 30.4501 29.5333 30.3355 29.7769C30.8227 30.1494 31.0949 30.4504 31.2239 30.9519C31.2526 31.0379 31.2956 31.5537 31.1236 31.2958C30.3355 30.3071 29.2751 30.0921 27.6845 30.2497C25.9793 30.4074 25.1912 30.6653 23.4859 31.5824C24.4317 32.4278 23.0131 33.259 22.7838 32.0123C21.9527 33.2733 21.0786 31.6827 22.1963 31.4534C21.0499 30.3357 22.6118 29.8199 22.9127 31.0235Z" fill="#585B61"/>
<path d="M25.8216 25.5783C26.4377 25.3777 27.1112 25.1627 27.4551 25.0911C27.5125 24.088 28.4582 22.8413 29.5759 23.2712C29.6189 23.2855 29.6476 23.3429 29.6046 23.3572C29.318 23.4432 28.4009 24.3173 28.7161 24.8761C28.9454 24.8904 29.5759 24.8761 29.7622 24.8904C30.0058 23.7871 30.9659 23.0133 32.0549 23.5148C32.0979 23.5291 32.1266 23.6008 32.0836 23.6008C31.6537 23.6724 30.6793 24.3603 30.7939 24.9478C30.9946 24.9621 31.5391 25.1484 31.883 25.3347C32.012 25.0624 32.1552 24.9621 32.2842 24.8188C32.7571 24.3173 33.7315 24.2743 34.0181 24.7615C34.0468 24.7901 34.0468 24.8475 34.0181 24.8475C33.6025 24.8331 33.23 24.8904 32.8717 25.2057C32.8144 25.2487 32.6998 25.4206 32.5708 25.6642C32.9147 25.8505 33.3016 26.2088 33.3733 26.5527C33.4306 26.7246 33.4592 26.8679 33.4306 27.0399C33.4163 27.0829 33.3303 27.0399 33.3016 27.0112C32.3988 26.0225 30.407 25.4063 28.4725 25.6499C27.1829 25.8075 25.9219 26.1658 24.8758 26.6243C25.2341 26.3091 25.5493 25.9652 25.8216 25.5783ZM22.9843 27.8137C22.8983 27.8997 22.8124 27.9713 22.7407 28.0573C23.1993 28.6878 22.4685 29.1893 22.2535 28.5588C21.709 29.1463 21.2791 28.4585 21.6373 28.1719C22.0959 28.1003 22.5544 27.9856 22.9843 27.8137Z" fill="#585B61"/>
<path d="M22.6685 36.2681C22.7975 36.1248 23.1127 35.8525 23.2704 35.7235C22.7831 34.9641 23.0554 33.9897 23.5283 33.918C23.5569 33.9323 23.5713 33.9753 23.5569 34.004C23.428 34.1903 23.3707 35.1934 23.7432 35.4083C23.9295 35.2793 24.2878 35.0214 24.4454 34.9784C24.1731 34.0613 24.646 32.829 25.5631 33.0296C25.5917 33.0439 25.6061 33.1012 25.5917 33.1156C24.8466 33.5025 24.8323 34.6488 25.0329 34.7778C25.3338 34.6918 25.6634 34.5628 25.993 34.5342C26.1363 33.3162 27.211 32.7717 27.7555 33.0869C27.7842 33.1012 27.7985 33.1729 27.7842 33.1729C27.4833 33.0009 26.3512 34.1616 26.7238 34.5055C26.9817 34.4912 27.2826 34.6058 27.5836 34.6775C27.7125 34.004 28.6583 33.4451 29.0595 33.875C29.0882 33.9037 29.0882 33.961 29.0738 33.961C28.7156 34.0327 28.2427 34.3622 28.1711 34.9927C28.9305 35.351 28.8446 36.0961 28.7156 35.8955C27.9991 34.9497 26.4802 35.1074 25.3195 35.351C24.646 35.4943 23.7002 36.1391 23.299 36.5976C24.517 37.1708 23.4137 38.2455 22.8978 37.0275C22.0523 38.5178 21.2212 37.1565 22.21 36.7553C21.0063 35.8239 22.253 35.1934 22.6685 36.2681Z" fill="#585B61"/>
<path d="M10.4031 35.136C9.19942 33.7461 8.18202 32.2415 7.36523 30.7225H20.5484V35.136H10.4031Z" fill="#585B61"/>
<path d="M26.8965 13.5701H36.5833V17.3674H26.8965V13.5701Z" fill="#585B61"/>
<path d="M36.5833 7.8096L33.7174 6.7922L30.3786 6.11871L26.6243 5.30193L23.1422 5.02966H20.4912V9.02762H36.569L36.5833 7.8096Z" fill="#585B61"/>
<path d="M6.74893 3.32449C7.13582 3.19552 7.52272 3.08088 7.92395 2.96625C8.06725 2.92326 8.21054 2.88027 8.36817 2.85161C8.52579 2.82295 8.68342 2.80862 8.84104 2.85161L8.89836 2.88027C8.95568 2.90893 8.98434 2.95192 9.013 3.00924C9.05599 3.10954 9.07032 3.20985 9.08465 3.32449C9.11331 3.55376 9.11331 3.78303 9.08465 4.01231C9.07032 4.19859 9.04166 4.38487 8.97001 4.5425C8.94135 4.61415 8.89836 4.67147 8.84104 4.72878C8.79806 4.77177 8.75507 4.81476 8.71208 4.84342C8.61177 4.91507 8.52579 4.97239 8.41116 5.01538C8.15322 5.13001 7.89529 5.21599 7.62303 5.30197C7.16448 5.45959 6.70594 5.61722 6.24739 5.77484V6.62029C6.01812 6.70627 5.78884 6.80657 5.55957 6.89255V3.71138C5.9608 3.58242 6.3477 3.45345 6.74893 3.32449ZM6.24739 5.20166C6.70594 5.04404 7.16448 4.88641 7.63736 4.72878C7.78066 4.6858 7.92395 4.64281 8.05292 4.58549L8.15322 4.52817L8.19621 4.49951L8.2392 4.45652L8.28219 4.41353L8.31085 4.37055L8.35384 4.28457C8.36817 4.22725 8.3825 4.18426 8.3825 4.12694C8.39683 3.98365 8.39683 3.85468 8.35384 3.71138L8.32518 3.63974L8.29652 3.58242L8.25353 3.53943L8.19621 3.51077L8.13889 3.49644H8.08158H8.02426C7.88096 3.51077 7.752 3.55376 7.6087 3.59675C7.15015 3.74004 6.69161 3.89767 6.23306 4.04097L6.24739 5.20166ZM12.0795 1.8772C12.3948 1.81988 12.6957 1.76256 13.011 1.7339C13.1113 1.71957 13.2116 1.71957 13.3119 1.71957C13.3549 1.71957 13.4122 1.7339 13.4552 1.74823C13.4982 1.76256 13.5268 1.77689 13.5698 1.80555C13.5985 1.83421 13.6271 1.84854 13.6558 1.8772C13.6844 1.90586 13.6988 1.94885 13.7131 1.97751C13.7418 2.03482 13.7561 2.07781 13.7561 2.13513C13.7847 2.32142 13.7991 2.52203 13.8134 2.72264C13.8277 2.95192 13.8277 3.16686 13.8134 3.3818C13.8134 3.46778 13.8134 3.56809 13.7991 3.65407C13.7847 3.82602 13.7847 3.99798 13.7418 4.16993C13.7274 4.21292 13.7131 4.25591 13.6988 4.28457C13.6701 4.34189 13.6415 4.3992 13.5985 4.45652L13.5125 4.58549L13.3835 4.67147C13.3262 4.70013 13.2832 4.71445 13.2259 4.74311C12.9966 4.81476 12.7673 4.85775 12.5381 4.91507C12.0652 5.01538 11.5923 5.10135 11.1194 5.20166C10.8902 5.24465 10.6609 5.28764 10.4316 5.3163C10.3743 5.33063 10.3027 5.33063 10.2453 5.33063L10.102 5.3163C10.0591 5.30197 10.0304 5.28764 10.0017 5.27331L9.93009 5.21599L9.87277 5.13001L9.7868 4.65714V3.3818C9.80113 3.23851 9.81546 3.08088 9.84411 2.93759L9.8871 2.80862C9.91576 2.73697 9.94442 2.67965 9.98741 2.62234L10.0877 2.5077L10.1737 2.43605C10.2597 2.37873 10.36 2.32142 10.4746 2.27843L10.9905 2.1208C11.3201 2.02049 11.6926 1.94885 12.0795 1.8772ZM11.7213 2.52203L10.9762 2.69398C10.9188 2.70831 10.8615 2.73697 10.8042 2.7513L10.7469 2.79429L10.6896 2.83728L10.6466 2.88027L10.6036 2.92326L10.5606 2.96625L10.5319 3.02356C10.5033 3.06655 10.4889 3.12387 10.4746 3.16686C10.4316 3.35315 10.4316 3.53943 10.4316 3.72571C10.4316 3.92633 10.4316 4.12694 10.4603 4.31323L10.4889 4.38488L10.5319 4.45652L10.5893 4.51384L10.6466 4.55683L10.7182 4.58549L10.7899 4.59982H10.8758C10.9332 4.59982 10.9762 4.59982 11.0191 4.58549C11.3057 4.5425 11.5923 4.48518 11.8789 4.42786C12.1082 4.38488 12.3518 4.32756 12.5811 4.27024C12.6241 4.25591 12.6814 4.24158 12.7244 4.22725L12.796 4.18426L12.8677 4.14127L12.925 4.08395L12.9823 4.02664L13.0253 3.95499L13.0539 3.88334L13.0826 3.81169C13.1256 3.59675 13.1113 3.39613 13.1113 3.18119C13.1113 3.06655 13.1113 2.95192 13.0969 2.85161L13.0826 2.76563C13.0683 2.70831 13.0539 2.651 13.0253 2.59368L12.9966 2.53636L12.968 2.49337L12.925 2.45038L12.8963 2.43605L12.839 2.40739L12.7817 2.39306L12.667 2.37873C12.5381 2.37873 12.4234 2.39306 12.3088 2.40739C12.1082 2.45038 11.9076 2.49337 11.7213 2.52203ZM16.4501 1.347C16.8083 1.31834 17.1665 1.28969 17.5248 1.28969C17.5964 1.28969 17.6824 1.28969 17.754 1.28969C17.84 1.28969 17.9117 1.30402 17.9833 1.347C18.012 1.36133 18.0406 1.37566 18.055 1.38999C18.1123 1.43298 18.1553 1.47597 18.1839 1.54762C18.2126 1.59061 18.2269 1.64793 18.2412 1.69091C18.2699 1.80555 18.2699 1.93452 18.2699 2.04915C18.2699 2.20678 18.2699 2.35007 18.2556 2.5077C18.2556 2.56502 18.2412 2.62234 18.2269 2.67965L18.1983 2.73697C18.1696 2.77996 18.1553 2.80862 18.1266 2.85161L18.055 2.90893C18.0263 2.92326 17.9976 2.95192 17.9547 2.96625C17.9117 2.98058 17.8543 2.99491 17.8114 3.00924L17.4245 3.09521L17.8114 3.31016C17.8687 3.35315 17.9117 3.3818 17.9547 3.42479L17.9976 3.48211C18.055 3.56809 18.098 3.65407 18.1409 3.75437C18.1983 3.92633 18.2269 4.09828 18.2269 4.27024C17.9976 4.28457 17.7684 4.28457 17.5391 4.2989C17.5248 4.16993 17.5104 4.05529 17.4675 3.92633L17.4101 3.78303L17.3815 3.71138L17.3385 3.65407L17.2955 3.59675L17.2382 3.55376L17.1665 3.51077C17.1235 3.49644 17.0806 3.48211 17.0376 3.48211C16.9516 3.46778 16.8513 3.48211 16.7653 3.48211C16.3211 3.51077 15.8912 3.55376 15.447 3.59675L15.275 3.61108V4.45652C15.0458 4.48518 14.8165 4.51384 14.5872 4.52817V1.51896C15.2177 1.44731 15.8339 1.38999 16.4501 1.347ZM15.2894 3.09521C15.7479 3.05222 16.2064 3.00924 16.665 2.98058C16.8226 2.96625 16.9802 2.95192 17.1379 2.93759C17.1809 2.93759 17.2238 2.92326 17.2668 2.90893L17.3242 2.8946L17.3815 2.86594L17.4245 2.83728L17.4675 2.79429L17.4961 2.7513L17.5248 2.70831C17.5391 2.66533 17.5534 2.63667 17.5534 2.59368C17.5678 2.46471 17.5678 2.33574 17.5678 2.20678C17.5678 2.16379 17.5534 2.1208 17.5391 2.06348L17.5104 2.02049L17.4818 1.97751L17.4388 1.93452L17.3958 1.90586L17.3528 1.8772L17.2955 1.86287C17.2525 1.84854 17.2095 1.84854 17.1665 1.84854C16.9373 1.84854 16.708 1.8772 16.493 1.89153C16.0918 1.92019 15.7049 1.96318 15.3037 1.99183L15.2894 3.09521ZM20.1614 3.79736C20.4193 3.79736 20.6773 3.79736 20.9495 3.79736C21.1215 3.79736 21.3078 3.79736 21.4941 3.78303C21.5371 3.78303 21.5657 3.7687 21.6087 3.7687C21.6517 3.75437 21.6803 3.74004 21.709 3.72571L21.752 3.69705L21.7807 3.65407L21.8093 3.61108L21.8236 3.56809L21.838 3.46778V3.32449L21.8093 3.16686L21.795 3.12387L21.7807 3.08088L21.752 3.03789L21.709 3.00924L21.666 2.98058L21.5657 2.95192L21.3938 2.92326H21.1788H19.7315C19.5882 2.92326 19.4449 2.92326 19.316 2.8946C19.273 2.88027 19.2443 2.88027 19.2157 2.86594L19.1727 2.83728L19.1297 2.80862L19.101 2.77996L19.0724 2.73697L19.0437 2.69398C19.015 2.63667 18.9864 2.57935 18.9721 2.52203C18.9434 2.3644 18.9434 2.19245 18.9434 2.03482C18.9434 1.83421 18.9577 1.6336 19.0437 1.44731C19.058 1.41865 19.0867 1.38999 19.101 1.36133C19.2013 1.27536 19.3303 1.23237 19.4593 1.20371C19.5882 1.17505 19.7315 1.17505 19.8605 1.17505C20.1757 1.17505 20.491 1.17505 20.8062 1.17505C21.3221 1.17505 21.8523 1.18938 22.3682 1.20371V1.66225C21.6803 1.64793 20.9925 1.6336 20.3047 1.6336C20.1471 1.6336 19.9895 1.6336 19.8318 1.64793C19.8032 1.64793 19.7602 1.66225 19.7315 1.66225L19.6742 1.69091L19.6312 1.7339L19.6026 1.79122L19.5882 1.84854L19.5739 1.94885C19.5739 2.03482 19.5739 2.10647 19.5739 2.19245L19.5882 2.24977L19.6026 2.30709L19.6455 2.3644L19.7172 2.40739L19.7888 2.42172C20.5053 2.43605 21.2361 2.45038 21.9526 2.47904L22.0386 2.49337C22.1532 2.52203 22.2679 2.56502 22.3538 2.651C22.3968 2.69398 22.4255 2.73697 22.4398 2.77996C22.5115 2.93759 22.5258 3.12387 22.5258 3.29583C22.5258 3.49644 22.5258 3.69706 22.4685 3.88334C22.4541 3.912 22.4541 3.94066 22.4398 3.96932L22.3968 4.02664C22.3682 4.06962 22.3395 4.09828 22.2965 4.12694C22.2249 4.16993 22.1532 4.21292 22.0816 4.22725C21.9669 4.25591 21.838 4.25591 21.7233 4.27024C21.3651 4.28457 21.0212 4.28457 20.6629 4.28457C20.1041 4.28457 19.5452 4.2989 19.0007 4.2989C19.0007 4.14127 19.0007 3.96932 19.0007 3.81169C19.3733 3.79736 19.7459 3.79736 20.1184 3.79736H20.1614ZM24.9045 4.42786C24.6179 4.3992 24.317 4.38487 24.0304 4.34189C23.9014 4.32756 23.7725 4.2989 23.6578 4.25591C23.6005 4.22725 23.5432 4.21292 23.4859 4.16993C23.4429 4.14127 23.4142 4.11261 23.3712 4.08395C23.3426 4.05529 23.3139 4.01231 23.2853 3.98365C23.2566 3.94066 23.2423 3.89767 23.2279 3.85468C23.185 3.69706 23.1706 3.5251 23.1706 3.35315C23.1563 2.93759 23.1563 2.53636 23.1706 2.1208V2.02049C23.185 1.83421 23.1993 1.64792 23.3139 1.4903C23.3569 1.44731 23.3856 1.40432 23.4429 1.37566C23.5862 1.30402 23.7581 1.27536 23.9158 1.26103C24.0877 1.2467 24.2453 1.2467 24.4173 1.26103C24.7469 1.27536 25.0908 1.28969 25.4204 1.31834C25.9076 1.36133 26.3804 1.40432 26.8677 1.46164V2.00616C26.2228 1.94885 25.5923 1.89153 24.9475 1.84854C24.7469 1.83421 24.5319 1.81988 24.317 1.83421L24.2167 1.84854L24.145 1.86287L24.0877 1.89153L24.0304 1.93452L23.9731 1.99183L23.9301 2.04915L23.9014 2.1208C23.8871 2.16379 23.8728 2.20678 23.8728 2.24977C23.8441 2.45038 23.8298 2.66533 23.8441 2.88027C23.8441 3.05222 23.8441 3.22418 23.8728 3.39613C23.8871 3.43912 23.8871 3.48211 23.9014 3.5251L23.9301 3.59675L23.9731 3.65407L24.0304 3.71138L24.0877 3.75437L24.145 3.78303L24.2167 3.81169C24.274 3.82602 24.3313 3.84035 24.3886 3.84035C24.5749 3.86901 24.7755 3.88334 24.9618 3.89767C25.6067 3.95499 26.2658 4.01231 26.9106 4.08395C26.9106 4.25591 26.9106 4.41353 26.9106 4.58549V4.64281C26.5094 4.59982 26.0939 4.55683 25.6926 4.52817C25.449 4.47085 25.1768 4.45652 24.9045 4.42786ZM29.2894 3.06655C29.8195 3.16686 30.3497 3.26717 30.8799 3.36747V2.14946C31.1235 2.20678 31.3671 2.2641 31.6251 2.30709V5.44526C31.3815 5.38795 31.1379 5.33063 30.8799 5.27331V4.04097C30.45 3.95499 30.0345 3.86901 29.6046 3.78303C29.2177 3.71138 28.8165 3.63974 28.4296 3.56809V4.7861C28.186 4.74311 27.9424 4.71445 27.6844 4.67147V1.61927C27.928 1.64793 28.186 1.67658 28.4296 1.71957V2.92326C28.7162 2.96625 29.0028 3.00924 29.2894 3.06655ZM34.9209 3.26717C35.1788 3.35315 35.4367 3.43912 35.709 3.5251V4.04097C34.9495 3.78303 34.1757 3.53943 33.4019 3.29583L33.144 3.22418V4.01231C33.7029 4.18426 34.276 4.35622 34.8349 4.5425C35.0785 4.62848 35.3364 4.70013 35.58 4.7861V5.24465C34.8636 5.00105 34.1328 4.77177 33.4019 4.55683L33.144 4.48518V5.3163C33.6885 5.47392 34.2331 5.64588 34.7633 5.81783C35.0785 5.91814 35.3938 6.03278 35.7233 6.13308V6.66328C34.6916 6.31937 33.6455 6.00412 32.5852 5.7032L32.4705 5.67454V2.52203C33.2873 2.7513 34.1041 3.00924 34.9209 3.26717Z" fill="#585B61"/>
<path d="M5.51628 26.3234C5.05774 24.7902 4.81413 23.3572 4.7998 22.1249H14.4006C14.4293 23.7441 15.1028 25.2344 16.1632 26.3234H5.51628Z" fill="#585B61"/>
<path d="M4.37012 3.18113L4.5564 3.10949C9.91567 1.132 15.2606 0.100275 20.6199 -3.19721e-05C25.9791 -0.0860095 31.3241 0.759436 36.6833 2.56496L36.8839 2.63661V2.83722C36.8409 9.27121 36.798 15.7052 36.755 22.1392C36.7406 25.4636 34.9924 30.1351 31.6966 34.219C29.0457 37.5148 25.3773 40.438 20.7918 41.9856H20.6342C16.0057 40.7963 12.3517 37.9877 9.68639 34.7062C6.27595 30.479 4.52774 25.435 4.51341 22.0102C4.48475 18.9007 4.47042 15.7912 4.44177 12.696L4.37012 3.18113ZM10.6178 34.9641H20.3619V31.0522H7.86654C7.82355 30.9805 7.78056 30.9089 7.7519 30.8372C8.42539 32.0409 9.21352 33.2303 10.1163 34.3623C10.2882 34.5629 10.4459 34.7635 10.6178 34.9641ZM20.3763 35.4513H11.062C13.4694 38.088 16.5789 40.2804 20.3763 41.3408V35.4513ZM10.8614 35.2364C10.8471 35.2221 10.8471 35.2221 10.8471 35.2077C10.8471 35.2221 10.8614 35.2364 10.8614 35.2364ZM7.59427 30.5506H20.3763V28.2436C20.4766 28.2436 20.5769 28.2436 20.6772 28.2436C20.7488 28.2436 20.8061 28.2436 20.8778 28.2436V41.3551C20.8635 41.3551 20.8491 41.3695 20.8491 41.3695C25.2053 39.8505 28.7017 37.0419 31.2524 33.8751C34.4192 29.9488 36.1101 25.478 36.1818 22.2681C36.1818 22.2825 36.1818 22.2825 36.1818 22.2968H26.9679C26.9679 22.1965 26.9822 22.0962 26.9822 21.9959V21.7953H36.1961C36.2104 20.4196 36.2104 19.044 36.2248 17.6827H26.9822V17.1955H36.2248C36.2391 16.0778 36.2391 14.9744 36.2534 13.871H26.9822V13.3838H26.9105V13.3695H36.2534C36.2678 12.0225 36.2678 10.6898 36.2821 9.34285H20.7345V13.3838H20.233V5.25892C15.1316 5.3449 10.016 6.3623 4.88598 8.35411L4.87165 7.83825C10.1449 5.80345 15.4182 4.80038 20.6772 4.75739C25.8931 4.7144 31.0948 5.61716 36.2821 7.40836C36.2821 7.58032 36.2821 7.75227 36.2821 7.92423C36.2964 6.29065 36.3108 4.65708 36.3108 3.03784C31.0805 1.30396 25.8502 0.487174 20.6342 0.573151C15.3322 0.659129 10.0446 1.67653 4.75702 3.63968L5.01495 12.696C5.04361 15.7338 5.05794 18.7717 5.0866 21.8239C5.0866 21.8239 5.0866 21.8239 5.0866 21.8096H14.4152V22.0102C14.4152 22.1105 14.4152 22.2108 14.4295 22.3111H5.07227C5.10093 23.4575 5.34453 24.7901 5.76009 26.1944C5.76009 26.1801 5.74576 26.1658 5.74576 26.1515H15.9771C16.0631 26.2518 16.149 26.3521 16.2493 26.438L16.5646 26.653H5.90338C6.31894 27.914 6.87779 29.2323 7.59427 30.5506ZM5.87472 26.5527C5.86039 26.524 5.86039 26.4954 5.84606 26.481C5.86039 26.5097 5.87472 26.524 5.87472 26.5527ZM5.8174 26.3664C5.80308 26.3377 5.80308 26.3091 5.78875 26.2804C5.80308 26.3091 5.8174 26.3377 5.8174 26.3664ZM36.1675 22.0102V22.0245C36.1675 22.0245 36.1675 22.0245 36.1675 22.0102ZM36.1675 22.0962V22.1105C36.1675 22.1105 36.1675 22.1105 36.1675 22.0962ZM36.1675 22.0962C36.1675 22.0818 36.1675 22.0819 36.1675 22.0819V22.0962ZM36.1675 22.0532C36.1675 22.0389 36.1675 22.0389 36.1675 22.0389V22.0532ZM36.1675 21.8382C36.1675 21.8239 36.1675 21.8239 36.1675 21.8239V21.8382ZM20.7345 8.85565H36.2678C36.2678 8.94163 36.2678 9.01327 36.2678 9.09925C36.2678 8.71235 36.2678 8.32545 36.2678 7.93856C31.0948 6.13303 25.9218 5.23026 20.7345 5.25892V8.85565ZM20.7058 41.4125C20.6915 41.4125 20.6915 41.4125 20.6772 41.4268C20.6915 41.4268 20.6915 41.4268 20.7058 41.4125ZM20.5052 41.3838C20.4622 41.3695 20.4336 41.3695 20.3906 41.3551C20.4336 41.3551 20.4766 41.3695 20.5052 41.3838Z" fill="#585B61"/>
<path d="M7.10737 11.1054C7.37963 10.9335 7.66623 10.7615 7.95282 10.6182C7.90983 10.174 7.86684 9.4862 7.98148 9.11363C8.19642 8.42581 8.82692 7.86696 9.57206 7.99592C9.61505 8.01025 9.64371 8.05324 9.61505 8.06757C9.19949 8.28251 8.86991 8.61209 8.68363 9.07064C8.62631 9.19961 8.42569 10.1167 8.72662 10.1883C8.75527 10.2027 8.78393 10.2027 8.82692 10.2027C9.37145 9.9734 9.9303 9.77279 10.5035 9.60084C10.5035 9.15662 10.5178 8.54045 10.6754 8.21087C10.962 7.56603 11.6785 7.09316 12.4523 7.32243C12.4953 7.33676 12.524 7.39408 12.4953 7.40841C12.0367 7.56604 11.6642 7.8383 11.4206 8.26818C11.3489 8.39715 11.048 9.27125 11.3633 9.38589H11.3776C11.9078 9.27125 12.4523 9.17095 13.0398 9.0993C13.1115 8.65508 13.2261 8.0819 13.4267 7.78098C13.8566 7.15048 14.7164 6.72059 15.5188 7.02151C15.5618 7.03584 15.5905 7.09316 15.5475 7.10749C15.0173 7.23645 14.5588 7.48006 14.2292 7.89562C14.1432 8.01025 13.699 8.81271 13.9569 8.99899C13.9856 8.99899 14.0142 8.99899 14.0429 8.98466C14.5014 8.94167 15.0316 8.92735 15.5332 8.956C15.6621 8.68374 15.7911 8.44014 15.9344 8.28251C16.4359 7.76665 17.5393 7.58036 17.8689 8.02458C17.8975 8.05324 17.9119 8.11056 17.8689 8.11056C17.396 8.12489 16.9088 8.19654 16.5506 8.52612C16.4932 8.58344 16.2926 8.78405 16.178 9.01332C16.9375 9.14229 17.5823 9.40022 17.7829 9.88743C17.8546 10.0451 17.8975 10.1883 17.8689 10.3603C17.8689 10.4033 17.7686 10.3746 17.7399 10.3316C16.7798 9.44321 15.2466 9.3429 13.1974 9.70114C11.1197 10.0594 9.38578 10.6756 7.52293 11.564C8.26807 12.4094 7.09304 13.0543 6.70614 12.1658C5.80338 13.2405 4.97226 11.6786 6.20461 11.4923C5.50246 10.4033 6.92109 10.3603 7.10737 11.1054Z" fill="#585B61"/>
<path d="M7.36478 19.6745C7.60838 19.4882 7.92364 19.3305 8.18157 19.1729C7.92364 18.7574 7.76601 18.1555 7.86632 17.7686C8.03827 17.0808 8.46816 16.7512 8.99835 16.7799C9.04134 16.7799 9.07 16.8372 9.04134 16.8515C8.66877 17.0951 8.61146 17.4104 8.49682 17.8833C8.4395 18.1412 8.5828 18.5711 8.76908 18.7287C9.24196 18.4708 9.22763 18.5138 9.72916 18.3275C9.58587 17.8833 9.61453 17.2814 9.80081 16.9088C10.0874 16.307 10.5603 16.0777 11.0332 16.178C11.0761 16.1924 11.1048 16.2354 11.0618 16.2497C10.6892 16.4073 9.92978 17.0092 10.4313 18.1412C10.8899 17.9836 10.9185 17.9549 11.506 17.8259C11.549 17.3817 11.5633 16.8515 11.7353 16.5363C12.0935 15.8914 12.939 15.5905 13.3259 15.7481C13.3689 15.7625 13.3975 15.8198 13.3545 15.8341C13.1396 15.9774 12.853 16.0921 12.5664 16.5219C12.4088 16.7512 12.1365 17.2814 12.2082 17.6397C12.6237 17.5823 13.1683 17.5537 13.6411 17.568C13.7414 17.2957 13.9421 16.9662 14.071 16.8085C14.157 16.7082 14.2716 16.6223 14.3863 16.5793V18.1842C13.5981 18.1412 12.724 18.2272 11.8929 18.4278C10.0158 18.872 9.52855 19.2159 7.85199 20.1187C8.85506 20.7492 7.88065 21.7093 7.26447 20.7635C6.17543 22.0102 5.47328 20.4053 6.60531 20.1617C5.74554 19.1156 7.14984 18.5567 7.36478 19.6745Z" fill="#585B61"/>
<path d="M6.87736 15.4043C7.16395 15.2324 7.55085 15.1034 7.83744 14.9601C7.80878 14.5159 7.75146 14.1147 7.88043 13.7421C8.1097 13.0686 8.46794 12.7247 9.04112 12.782C9.08411 12.7963 9.11277 12.8393 9.08411 12.868C8.66856 13.0829 8.76886 13.3695 8.58258 13.8137C8.52526 13.9427 8.38196 14.4872 8.68289 14.5732C8.71154 14.5875 8.7402 14.5875 8.78319 14.5875C9.32772 14.3726 9.1271 14.3869 9.68596 14.2436C9.70029 13.8137 9.72894 13.2262 9.87224 12.911C10.1732 12.2948 10.732 11.9939 11.2479 12.1228C11.2909 12.1372 11.3768 12.2375 11.3339 12.2518C10.9183 12.3808 10.2018 13.2262 10.5027 13.8854C10.861 13.8281 11.1046 13.7134 11.7494 13.6275C11.8354 13.1832 11.9787 12.739 12.1936 12.4381C12.6378 11.8219 13.3257 11.693 13.7269 11.8792C13.7699 11.8936 13.8272 12.0082 13.7842 12.0225C13.254 12.1372 13.2397 12.0799 12.8958 12.4954C12.7095 12.7104 12.3369 13.2979 12.6092 13.5701C13.0677 13.5415 13.383 13.4842 13.8845 13.5271C14.0135 13.2692 14.1138 12.911 14.2571 12.7677C14.7586 12.2518 15.6327 12.2088 15.9193 12.5527C15.948 12.5814 15.9623 12.6387 15.9193 12.6387C15.4464 12.653 15.2745 12.782 14.9019 13.1116C14.8589 13.1402 14.773 13.2549 14.6726 13.3982H14.4004V14.2866C13.6266 14.215 12.7811 14.2436 11.993 14.3583C9.91523 14.6735 9.15576 15.1464 7.43621 15.9775C8.16702 16.8373 6.97767 17.4391 6.61943 16.5364C5.70233 17.5967 4.88555 16.0062 6.14655 15.8485C5.4444 14.7165 6.67674 14.4156 6.87736 15.4043Z" fill="#585B61"/>
<path d="M26.6672 13.6847V22.0102C26.6672 25.2917 23.9875 27.957 20.6774 27.957C17.3816 27.957 14.6876 25.2917 14.6876 22.0102V13.6847H26.6672ZM26.9538 13.3838H14.3867V21.9959C14.3867 25.4206 17.2096 28.2436 20.6631 28.2436C24.1308 28.2436 26.9394 25.4206 26.9394 21.9959L26.9538 13.3838Z" fill="#585B61"/>
<path d="M20.4053 19.4882C20.4626 19.5455 20.5916 19.4739 20.6346 19.4166C20.7349 19.2589 20.7205 19.0583 20.7349 18.8577C20.7492 18.6428 20.7492 18.4565 20.6775 18.2559C20.5629 17.912 20.4053 17.6397 20.0184 17.5824C19.9754 17.5681 19.8894 17.654 19.9181 17.6827C20.176 17.955 20.2763 17.9406 20.348 18.3562C20.4196 18.7574 20.3766 19.4596 20.4053 19.4882ZM17.697 24.4892C17.7543 24.5036 17.8833 24.3316 17.9263 24.2313C17.9693 24.1453 17.9549 23.9734 17.9549 23.959C17.9406 23.9304 17.7973 23.9877 17.7256 23.9877C17.654 23.9877 17.5967 23.9734 17.4964 23.959C17.3961 23.9447 17.4104 23.7154 17.3961 23.5865C17.3674 23.2569 17.3531 22.9273 17.3674 22.5977C17.3674 22.5118 17.3961 22.3971 17.4677 22.3398C17.568 22.2825 17.7113 22.2968 17.826 22.3111C18.0552 22.3541 18.2702 22.4688 18.5138 22.5118C18.6427 22.5404 18.786 22.5261 18.915 22.4831C19.0296 22.4544 19.1156 22.3685 19.2159 22.3255C19.2732 22.3111 19.3449 22.2968 19.3879 22.3255C19.5742 22.4258 19.7031 22.6121 19.8894 22.6837C20.133 22.7554 20.391 22.7267 20.6489 22.741C20.8495 22.741 21.0501 22.7124 21.2507 22.741C21.3367 22.7554 21.48 22.7697 21.5087 22.87C21.5373 22.999 21.3224 23.1136 21.351 23.2426C21.4084 23.4432 21.6376 23.5435 21.7379 23.7154C21.7809 23.7871 21.7666 23.8731 21.7379 23.9447C21.7093 24.002 21.609 24.0164 21.566 24.0737C21.5087 24.1597 21.4943 24.26 21.437 24.3459C21.3797 24.4319 21.2937 24.5036 21.2077 24.5752C21.0215 24.7185 20.8352 24.8618 20.6202 24.9764C20.5486 25.0194 20.4196 24.9335 20.391 25.0051C20.3336 25.1341 20.2763 25.2917 20.219 25.3777C20.1617 25.4637 20.09 25.478 20.047 25.521C20.0041 25.5783 19.9467 25.6786 19.9754 25.6929C20.0041 25.7073 20.2763 25.7073 20.3766 25.6929C20.4769 25.6786 20.5342 25.6643 20.5629 25.6499C20.5916 25.6213 20.5486 25.5353 20.5199 25.3633C20.5056 25.1914 20.9785 25.1197 21.2077 24.9908C21.4513 24.8331 21.6949 24.6612 21.9385 24.5179C22.0389 24.4606 22.1821 24.4463 22.2681 24.3603C22.3111 24.3173 22.2968 24.2456 22.2968 24.1883C22.2968 24.045 22.2681 23.9017 22.2681 23.7584C22.2681 23.6868 22.2681 23.6008 22.3254 23.5578C22.3684 23.5148 22.4544 23.5005 22.4974 23.5292C22.5834 23.5721 22.5977 23.7011 22.6694 23.7584C22.784 23.8444 22.9273 23.8731 23.0563 23.9304C23.1709 23.9877 23.3715 23.9877 23.3858 24.1023C23.4145 24.3173 23.2712 24.5179 23.1852 24.7042C23.1422 24.8045 23.0419 24.8618 22.9846 24.9621C22.9559 25.0194 22.9559 25.0911 22.913 25.1341C22.7983 25.2487 22.6407 25.3204 22.5261 25.435C22.4401 25.521 22.3684 25.6069 22.3254 25.7073C22.2968 25.7646 22.2825 25.8219 22.2538 25.8792C22.2108 25.9365 22.1392 25.9509 22.0962 26.0368C22.0532 26.1228 21.9529 26.3521 22.0389 26.3378C22.1248 26.3234 22.6264 26.2374 22.6407 26.1801C22.655 26.1371 22.612 26.0082 22.5834 25.8505C22.5547 25.6929 22.913 25.5783 23.0849 25.478C23.1852 25.4207 23.3285 25.4493 23.4145 25.3777C23.4718 25.3347 23.4432 25.2344 23.4575 25.1771C23.5005 25.0768 23.5291 24.9621 23.6151 24.8761C23.7154 24.7615 23.8874 24.7185 23.9733 24.6039C24.0593 24.4606 24.1596 24.2886 24.131 24.131C24.1023 24.002 23.9447 23.959 23.8587 23.8587C23.7871 23.7871 23.7154 23.7011 23.6868 23.6008C23.6438 23.4575 23.6151 23.3142 23.6581 23.1709C23.7154 22.999 23.8874 22.8843 23.9877 22.741C24.0737 22.6121 24.2026 22.5118 24.2456 22.3685C24.2886 22.1965 24.2026 22.0102 24.1883 21.8383C24.1883 21.8096 24.1596 21.7666 24.1883 21.738C24.3029 21.6377 24.4319 21.5087 24.5895 21.48C24.7328 21.4657 24.8474 21.609 24.9907 21.6377C25.134 21.652 25.306 21.6663 25.4493 21.609C25.4923 21.5947 25.5066 21.4944 25.478 21.4514C25.3776 21.3654 25.1627 21.394 25.1197 21.2794C25.0911 21.1791 25.2917 21.1504 25.349 21.0501C25.4206 20.9212 25.478 20.7779 25.478 20.6203C25.478 20.5629 25.3633 20.5629 25.3203 20.5916C25.2487 20.6346 25.2487 20.7349 25.1914 20.7922C25.1484 20.8352 25.0767 20.8495 25.0194 20.8495C24.9621 20.8495 24.8761 20.8209 24.8474 20.7779C24.8045 20.7349 24.7758 20.6346 24.8188 20.6059C24.9334 20.5343 25.0911 20.5629 25.22 20.5343C25.2773 20.5199 25.349 20.5056 25.3776 20.4626C25.4206 20.3767 25.4206 20.2763 25.3776 20.1904C25.3633 20.1474 25.2917 20.1474 25.2487 20.1617C25.1914 20.176 25.1627 20.262 25.0911 20.262C25.0051 20.262 24.9191 20.219 24.8618 20.1617C24.8188 20.1044 24.8045 20.0184 24.8331 19.9611C24.8761 19.8608 25.0194 19.8321 25.0624 19.7318C25.1197 19.6029 25.1627 19.4452 25.134 19.3019C25.1197 19.2446 25.0051 19.216 24.9621 19.2589C24.8904 19.3019 24.9048 19.4022 24.8618 19.4596C24.8045 19.5455 24.7758 19.6745 24.6898 19.7175C24.6325 19.7461 24.5322 19.6888 24.5179 19.6172C24.4892 19.5025 24.5609 19.3879 24.5895 19.2876C24.6325 19.173 24.6898 19.0583 24.7615 18.958C24.8331 18.8577 24.9764 18.8147 25.0337 18.7001C25.0767 18.6141 25.1197 18.4995 25.0624 18.4278C25.0194 18.3705 24.9191 18.4135 24.8618 18.4565C24.8188 18.4851 24.8331 18.5855 24.7901 18.6141C24.6612 18.6714 24.5035 18.6284 24.3889 18.6858C24.2886 18.7431 24.2456 18.8434 24.1883 18.9437C24.088 19.1156 24.0737 19.4166 24.0307 19.4452C23.9877 19.4882 23.8874 19.4739 23.8587 19.4166C23.8157 19.3449 23.8874 19.2303 23.83 19.1586C23.7871 19.1156 23.6724 19.1156 23.6294 19.1586C23.5721 19.216 23.5578 19.3019 23.5578 19.3879C23.5578 19.5169 23.5721 19.6458 23.6294 19.7605C23.7297 19.9468 23.8874 20.0901 24.0163 20.262C24.1453 20.434 24.3029 20.5916 24.3746 20.7922C24.4176 20.9212 24.4319 21.0788 24.3746 21.1934C24.3316 21.3081 24.2169 21.4227 24.1023 21.4227C23.9447 21.4084 23.83 21.2364 23.7011 21.1504C23.5721 21.0645 23.4432 20.9498 23.2999 20.9212C22.9703 20.8639 22.6264 20.9212 22.2825 20.9212C21.9815 20.9212 21.6663 20.9642 21.3654 20.9212C21.2221 20.9068 21.0644 20.8495 20.9641 20.7492C20.8638 20.6489 20.7922 20.5056 20.7922 20.3766C20.7778 20.1904 20.8495 20.0184 20.9211 19.8465C20.9785 19.7318 21.0644 19.6172 21.1791 19.5455C21.2651 19.4882 21.4084 19.4596 21.4943 19.4882C21.5946 19.5312 21.8669 19.9038 21.9242 19.8894C21.9815 19.8751 21.9385 19.5455 21.9099 19.4452C21.8526 19.2876 21.6806 19.2016 21.6376 19.044C21.6233 19.001 21.6949 18.9437 21.7379 18.9437C21.8239 18.9437 21.9242 19.001 21.9959 19.0727C22.0389 19.1013 22.2251 19.3736 22.2681 19.3593C22.3111 19.3449 22.2395 18.9724 22.1965 18.8577C22.1248 18.7001 21.8956 18.5855 21.8812 18.5425C21.8669 18.5138 21.8812 18.4851 21.9242 18.4708C22.0102 18.4708 22.0962 18.5138 22.1821 18.5425C22.2538 18.5711 22.3684 18.6571 22.4114 18.6428C22.4544 18.6284 22.4114 18.4995 22.3684 18.4422C22.2108 18.2559 21.9959 18.1412 21.8382 17.9693C21.7523 17.8833 21.6663 17.7687 21.6663 17.6397C21.6663 17.5681 21.7523 17.4964 21.8239 17.4677C21.9529 17.4104 22.1248 17.3818 22.2395 17.3101C22.2825 17.2815 22.2538 17.2528 22.2108 17.2385C22.0245 17.1668 21.8239 17.1382 21.6233 17.1382C21.5087 17.1382 21.4084 17.2098 21.2937 17.2385C21.2221 17.2671 21.1504 17.3101 21.0644 17.3101C20.9211 17.3101 20.7635 17.3244 20.6632 17.2385C20.6059 17.1812 20.6775 17.0665 20.7205 16.9805C20.7635 16.9089 20.8352 16.8659 20.8925 16.8086C20.9355 16.7656 21.0644 16.7226 21.0215 16.7083C20.9785 16.6939 20.7492 16.6939 20.6202 16.7369C20.5056 16.7656 20.4053 16.8086 20.3193 16.8946C20.2477 16.9662 20.262 17.1238 20.1617 17.1668C19.9897 17.2671 19.9037 17.2385 19.7175 17.3244C19.6745 17.3531 19.5742 17.4677 19.5312 17.4821C19.3019 17.5107 18.8434 17.3961 18.829 17.4391C18.8004 17.4821 19.1873 17.697 19.2589 17.8976C19.2876 17.9836 19.0726 17.8546 18.9867 17.869C18.8434 17.8833 18.7001 17.912 18.5854 17.9693C18.4708 18.0266 18.3705 18.1269 18.2845 18.2272C18.1985 18.3132 18.1555 18.4278 18.0552 18.4995C18.0122 18.5281 17.9119 18.4851 17.8833 18.5281C17.8403 18.5855 17.826 18.7144 17.8976 18.7144L18.2988 18.7431C18.3705 18.7431 18.2272 18.9007 18.2702 18.9723C18.2988 19.0153 18.3991 19.001 18.4421 18.9723C18.4994 18.9437 18.5281 18.8577 18.5998 18.8147C18.6714 18.7717 18.743 18.7144 18.829 18.7144C18.9293 18.7144 19.0583 18.7574 19.1013 18.8434C19.1443 18.9294 19.044 19.0297 19.0296 19.1156C19.0153 19.216 19.0726 19.3449 19.001 19.4166C18.786 19.6172 18.7144 19.4452 18.3991 19.8465C18.1412 20.1617 18.2558 19.9898 18.1699 20.4053C18.1555 20.4913 18.1412 20.5773 18.0696 20.6346C17.9979 20.6776 17.8833 20.7062 17.8116 20.6632C17.6683 20.5916 17.5824 20.4483 17.482 20.305C17.4247 20.2334 17.4534 20.1044 17.3817 20.0471C17.2814 19.9898 17.1381 19.9898 17.0235 20.0184C16.9375 20.0471 16.8945 20.1474 16.8515 20.219C16.7369 20.3767 16.6509 20.5629 16.5506 20.7206C16.4646 20.8495 16.35 20.9642 16.2784 21.0931C16.2354 21.1648 16.264 21.2508 16.221 21.3224C16.1351 21.523 16.0634 21.7093 15.9631 21.8956C15.9201 21.9672 15.8341 22.0102 15.8055 22.0962C15.7912 22.1822 15.8198 22.3685 15.8628 22.3685C15.9058 22.3685 16.0491 22.2682 16.1351 22.2108C16.2354 22.1678 16.4217 22.1105 16.436 22.0819C16.4503 22.0532 16.3357 21.9529 16.2784 21.8813C16.1781 21.7523 16.393 21.566 16.479 21.4227C16.5076 21.3654 16.5793 21.3511 16.6079 21.2937C16.6653 21.1791 16.6796 21.0358 16.7369 20.9212C16.8086 20.7635 16.8945 20.6059 17.0092 20.4913C17.0665 20.434 17.1668 20.391 17.2384 20.4483C17.3531 20.5199 17.3674 20.6776 17.4391 20.8065C17.4964 20.8925 17.568 20.9785 17.5967 21.0788C17.6253 21.1648 17.5394 21.2794 17.5967 21.3511C17.6683 21.437 17.8116 21.4657 17.9263 21.48L18.1842 21.5087L18.2129 21.8669C18.2272 21.9959 17.9406 21.8956 17.8116 21.9242C17.697 21.9529 17.5824 21.9959 17.4534 22.0246C17.3388 22.0532 17.1238 21.9529 17.0951 22.0819C16.9948 22.5834 17.1238 23.0849 17.1525 23.5865C17.1525 23.7154 17.0808 23.9304 17.2098 23.9877L17.4534 24.088C17.4964 24.1883 17.525 24.3173 17.5824 24.3889C17.568 24.4606 17.6397 24.4749 17.697 24.4892Z" fill="#585B61"/>
<path d="M25.5921 14.9314C25.5921 14.8311 25.5204 14.7882 25.3915 14.7882H24.9043C24.7753 14.7882 24.7036 14.8311 24.7036 14.9314C24.7036 15.0318 24.7753 15.0747 24.9043 15.0747H25.0046V15.9775C25.0046 16.1351 25.0475 16.2068 25.1479 16.2068C25.2482 16.2068 25.2911 16.1351 25.2911 15.9775V15.0747H25.3915C25.5348 15.0747 25.5921 15.0318 25.5921 14.9314ZM24.2021 15.2467C24.2021 15.3613 24.1448 15.4187 24.0301 15.4187H23.9012V15.0747H24.0301C24.1448 15.0747 24.2021 15.1321 24.2021 15.2467ZM24.5174 16.0635C24.5174 16.0062 24.4887 15.9488 24.4314 15.8772L24.2021 15.5906C24.3884 15.5476 24.503 15.4043 24.503 15.2037C24.503 14.9458 24.3311 14.7595 24.0301 14.7595H23.8152C23.6576 14.7595 23.6146 14.8311 23.6146 14.9888V15.9632C23.6146 16.1208 23.6576 16.1925 23.7579 16.1925C23.8582 16.1925 23.9012 16.1208 23.9012 15.9632V15.6193L24.2308 16.0921C24.2881 16.1638 24.3311 16.2068 24.3884 16.2068C24.46 16.2068 24.5174 16.1495 24.5174 16.0635ZM22.9984 15.6193H22.6975L22.8551 15.1034L22.9984 15.6193ZM23.3996 16.0492C23.3996 16.0205 23.3996 15.9918 23.3853 15.9488L23.0701 14.9458C23.0271 14.8311 22.9554 14.7595 22.8551 14.7595C22.7548 14.7595 22.6832 14.8311 22.6402 14.9601L22.3106 15.9488C22.2963 15.9775 22.2963 16.0062 22.2963 16.0348C22.2963 16.1208 22.3536 16.1925 22.4252 16.1925C22.4826 16.1925 22.5399 16.1495 22.5685 16.0492L22.6115 15.9059H23.0701L23.0987 16.0348C23.1274 16.1351 23.1704 16.1925 23.242 16.1925C23.3423 16.2068 23.3996 16.1495 23.3996 16.0492ZM22.0957 15.5476C22.0957 15.39 22.0383 15.3327 21.9237 15.3327H21.7374C21.6228 15.3327 21.5655 15.3757 21.5655 15.476C21.5655 15.5763 21.6228 15.6193 21.7374 15.6193H21.8234C21.8234 15.7912 21.7374 15.9059 21.5941 15.9059C21.4365 15.9059 21.3219 15.7339 21.3219 15.4616C21.3219 15.1894 21.4365 15.0318 21.5941 15.0318C21.7517 15.0318 21.8234 15.1607 21.895 15.1607C21.9524 15.1607 22.0097 15.0891 22.0097 15.0174C22.0097 14.8741 21.852 14.7308 21.6084 14.7308C21.2645 14.7308 21.0496 15.0174 21.0496 15.476C21.0496 15.9202 21.2645 16.2211 21.5798 16.2211C21.895 16.2211 22.0957 15.9345 22.0957 15.5476ZM20.9779 14.9314C20.9779 14.8311 20.9063 14.7882 20.7773 14.7882H20.2901C20.1612 14.7882 20.0895 14.8311 20.0895 14.9314C20.0895 15.0318 20.1612 15.0747 20.2901 15.0747H20.3904V15.9775C20.3904 16.1351 20.4334 16.2068 20.5337 16.2068C20.634 16.2068 20.677 16.1351 20.677 15.9775V15.0747H20.7773C20.9063 15.0747 20.9779 15.0318 20.9779 14.9314ZM20.0322 14.9314C20.0322 14.8311 19.9605 14.7882 19.8316 14.7882H19.3444C19.2154 14.7882 19.1438 14.8311 19.1438 14.9314C19.1438 15.0318 19.2154 15.0747 19.3444 15.0747H19.4447V15.9775C19.4447 16.1351 19.4877 16.2068 19.588 16.2068C19.6883 16.2068 19.7313 16.1351 19.7313 15.9775V15.0747H19.8316C19.9605 15.0747 20.0322 15.0318 20.0322 14.9314ZM18.9718 15.5763V14.9888C18.9718 14.8311 18.9288 14.7595 18.8285 14.7595C18.7282 14.7595 18.6852 14.8311 18.6852 14.9888V15.5476C18.6852 15.7912 18.5992 15.9202 18.4416 15.9202C18.284 15.9202 18.198 15.7912 18.198 15.5476V14.9888C18.198 14.8311 18.155 14.7595 18.0547 14.7595C17.9544 14.7595 17.9114 14.8311 17.9114 14.9888V15.5763C17.9114 15.9918 18.112 16.2211 18.4416 16.2211C18.7569 16.2211 18.9718 15.9918 18.9718 15.5763ZM17.7968 14.9314C17.7968 14.8311 17.7251 14.7882 17.5962 14.7882H17.109C16.98 14.7882 16.9083 14.8311 16.9083 14.9314C16.9083 15.0318 16.98 15.0747 17.109 15.0747H17.2093V15.9775C17.2093 16.1351 17.2523 16.2068 17.3526 16.2068C17.4529 16.2068 17.4959 16.1351 17.4959 15.9775V15.0747H17.5962C17.7251 15.0747 17.7968 15.0318 17.7968 14.9314ZM16.808 15.7482C16.808 15.5333 16.6934 15.4043 16.4641 15.3183C16.3208 15.261 16.2349 15.2467 16.2349 15.1464C16.2349 15.0747 16.2922 15.0318 16.3782 15.0318C16.4498 15.0318 16.5358 15.0747 16.5931 15.0747C16.6791 15.0747 16.7221 15.0174 16.7221 14.9458C16.7221 14.8311 16.5931 14.7452 16.3782 14.7452C16.1059 14.7452 15.9339 14.9314 15.9339 15.1894C15.9339 15.4043 16.0486 15.5046 16.2778 15.5906C16.4068 15.6336 16.4928 15.6766 16.4928 15.7912C16.4928 15.8772 16.4355 15.9345 16.3495 15.9345C16.2205 15.9345 16.1202 15.8629 16.0486 15.8629C15.9626 15.8629 15.9053 15.9202 15.9053 16.0062C15.9053 16.1208 16.0772 16.2354 16.3065 16.2354C16.6218 16.2211 16.808 16.0205 16.808 15.7482Z" fill="#585B61"/>
</g>
<defs>
<clipPath id="clip0_69_8123">
<rect width="42" height="42" fill="white"/>
</clipPath>
</defs>
</svg>
