<svg width="42" height="42" viewBox="0 0 42 42" fill="none" xmlns="http://www.w3.org/2000/svg">
<g clip-path="url(#clip0_70_8219)">
<path d="M21.025 39.9447C10.6197 39.9447 2.09491 31.3781 2.09491 20.9728C2.09491 18.6326 2.51279 16.4178 3.30677 14.3284L14.3807 36.6016C14.506 36.8941 14.715 37.1448 15.0493 37.1448C15.3836 37.1448 15.5925 36.8941 15.7179 36.6016L20.8161 25.1934C20.8579 25.068 20.9414 24.9427 21.0668 24.9427C21.1922 24.9427 21.234 25.068 21.3175 25.1934L26.4157 36.6016C26.5411 36.8941 26.75 37.1448 27.0843 37.1448C27.4186 37.1448 27.6276 36.8941 27.7529 36.6016L38.8268 14.3284C39.6208 16.4178 40.0387 18.6326 40.0387 20.9728C39.9551 31.3781 31.4303 39.9447 21.025 39.9447ZM21.025 16.6686C20.8996 16.6686 20.8579 16.5432 20.7743 16.4178L14.8403 3.04558C16.7626 2.33518 18.852 1.95909 21.025 1.95909C23.198 1.95909 25.2874 2.33518 27.2097 3.04558L21.2757 16.4178C21.1922 16.585 21.1504 16.6686 21.025 16.6686ZM14.9657 30.4169C14.8403 30.4169 14.7986 30.2916 14.715 30.1662L5.10367 10.7764C6.81699 8.14376 9.11535 5.92898 11.9152 4.38281L18.852 19.8027C18.9356 20.0534 19.1445 20.137 19.3535 20.137H22.6965C22.9473 20.137 23.1144 20.0952 23.2398 19.8027L30.1767 4.38281C32.9347 5.92898 35.2748 8.14376 36.9881 10.7764L27.2933 30.1662C27.2515 30.2916 27.1679 30.4169 27.0425 30.4169C26.9172 30.4169 26.8754 30.2916 26.7918 30.1662L23.1562 21.8921C23.0309 21.5996 22.8637 21.5578 22.613 21.5578H19.2699C19.0192 21.5578 18.852 21.5996 18.7267 21.8921L15.2164 30.1662C15.1747 30.2916 15.0911 30.4169 14.9657 30.4169ZM21.025 41.8669C32.6004 41.8669 41.9192 32.5481 41.9192 20.9728C41.9192 9.39741 32.6004 0.0786133 21.025 0.0786133C9.44965 0.0786133 0.130859 9.39741 0.130859 20.9728C0.130859 32.5481 9.44965 41.8669 21.025 41.8669Z" fill="#585B61"/>
</g>
<defs>
<clipPath id="clip0_70_8219">
<rect width="42" height="42" fill="white"/>
</clipPath>
</defs>
</svg>
